<svg width="300" height="300" xmlns="http://www.w3.org/2000/svg">
 <!-- Created with UXWing SVG Editor - https://uxwing.com/svg-icon-editor/ -->
 <g>
  <title>background</title>
  <rect fill="none" id="canvas_background" height="302" width="302" y="-1" x="-1"/>
 </g>
 <g>
  <title>Layer 1</title>
  <path id="svg_2" d="m201.240548,240.8598c-11.281138,-4.365534 -15.785621,-16.363526 -15.785621,-16.363526s-5.082491,2.717617 -5.082491,-4.91484s5.082491,4.91484 10.164983,-24.554926c0,0 14.091457,-3.825866 11.281138,-35.463943l-3.388328,0c0,0 8.460853,-33.825663 0,-45.283987c-8.470819,-11.458323 -11.849181,-19.09078 -30.475018,-24.554926s-11.839215,-4.375171 -25.38256,-3.816229c-13.543345,0.549306 -24.834449,7.632457 -24.834449,11.448686c0,0 -8.460853,0.549306 -11.839215,3.825866c-3.388328,3.27656 -9.028897,18.541475 -9.028897,22.36734s2.820284,29.469766 5.640569,34.924275l-3.358431,1.088974c-2.820284,31.638078 11.281138,35.463943 11.281138,35.463943c5.072526,29.469766 10.155017,16.922469 10.155017,24.554926s-5.082491,4.91484 -5.082491,4.91484s-4.504483,11.997992 -15.785621,16.363526c-11.281138,4.355897 -73.905406,27.812212 -78.997863,32.727052c-5.092457,4.924477 -4.514448,27.831486 -4.514448,27.831486l268.544899,0c0,0 0.587975,-22.907009 -4.504483,-27.831486c-5.102423,-4.91484 -67.726691,-28.371155 -79.007829,-32.727052zm-124.2719,-1.657554c-0.986601,-1.734649 -1.474919,-2.987452 -1.474919,-2.987452s-4.305169,2.303229 -4.305169,-4.163159s4.305169,4.163159 8.610339,-20.806156c0,0 11.948838,-3.238012 9.557077,-30.057619l-2.870113,0c0,0 1.425091,-5.695432 2.361864,-12.85568c-0.039863,-2.968178 0.059794,-6.129095 0.36873,-9.598393l0.378695,-4.105337c-0.209279,-4.741375 -1.066327,-9.049088 -3.109289,-11.81489c-7.175282,-9.7044 -10.045395,-16.180424 -25.82105,-20.806156c-15.775655,-4.625732 -10.045395,-3.710222 -21.515881,-3.238012c-11.480451,0.462573 -21.047494,6.466388 -21.047494,9.714037c0,0 -7.175282,0.462573 -10.045395,3.238012c-2.700696,2.611611 -7.025797,14.089208 -7.544012,18.165634l0,2.70798c0.468386,6.292923 2.571143,23.600869 4.673899,27.677295l-2.850182,0.925146c-2.381795,26.819607 9.557077,30.057619 9.557077,30.057619c4.305169,24.969315 8.610339,14.339768 8.610339,20.806156s-4.305169,4.163159 -4.305169,4.163159s-3.816851,10.186247 -13.383894,13.867558c-0.607906,0.231287 -1.385228,0.539669 -2.312035,0.886599l0,50.43975l5.73026,0c-0.289004,-12.316011 0.767357,-28.207327 7.43439,-34.635167c3.547778,-3.421114 15.177715,-9.049088 63.301933,-27.580926zm222.533402,-87.272139c-0.398627,-3.642764 -1.26564,-6.890413 -2.909976,-9.116546c-7.165316,-9.714037 -10.045395,-16.180424 -25.811084,-20.806156c-15.785621,-4.625732 -10.045395,-3.710222 -21.525846,-3.238012c-11.470486,0.462573 -21.037529,6.466388 -21.037529,9.714037c0,0 -7.165316,0.462573 -10.045395,3.238012c-2.700696,2.621248 -7.06566,14.185577 -7.553978,18.223456l0.328867,0l0.797254,8.798527c0.199313,2.226133 0.219245,4.201706 0.269073,6.215827c0.89691,6.418203 2.092791,13.009871 3.288671,15.3131l-2.850182,0.925146c-2.381795,26.819607 9.567043,30.057619 9.567043,30.057619c4.305169,24.969315 8.600373,14.339768 8.600373,20.806156s-4.305169,4.163159 -4.305169,4.163159s-0.52818,1.368446 -1.624404,3.257286c47.536244,18.310188 59.066524,23.899614 62.574439,27.311091c6.676999,6.42784 7.723394,22.309519 7.43439,34.635167l4.783521,0l0,-51.13361c-0.159451,-0.057822 -0.378695,-0.144554 -0.518215,-0.202376c-9.557077,-3.690948 -13.383894,-13.867558 -13.383894,-13.867558s-4.315135,2.303229 -4.315135,-4.163159s4.315135,4.163159 8.610339,-20.806156c0,0 8.012398,-2.20686 9.59694,-17.741609l0,-11.824527c-0.009966,-0.173465 -0.009966,-0.318019 -0.029897,-0.491484l-2.880079,0c0,0 2.142619,-8.576878 2.909976,-17.934347l0,-11.333043l0.029897,0z" stroke-width="0" fill="#ffffff"/>
  <path id="svg_5" d="m240.469988,0.074674c-32.86116,0 -59.499987,19.697291 -59.499987,43.998452c0,8.302802 3.149295,16.06218 8.567933,22.686526l-8.567933,18.524024l23.855139,-6.036129c9.940705,5.514949 22.257373,8.827124 35.644848,8.827124c32.86124,0 59.500012,-19.700508 59.500012,-44.001545s-26.638772,-43.998452 -59.500012,-43.998452zm4.173919,68.87817l-8.368908,0l0,-7.915929l8.368908,0l0,7.915929zm0,-16.369087l0,2.618412l-8.368908,0l0,-3.22267c0,-9.725545 11.224786,-11.266513 11.224786,-18.172252c0,-3.152394 -2.855882,-5.569383 -6.600135,-5.569383c-3.876423,0 -7.280243,2.816693 -7.280243,2.816693l-4.76082,-5.837935c0,0 4.692717,-4.830788 12.788472,-4.830788c7.69282,0 14.832812,4.69651 14.832812,12.609333c0.004079,11.074758 -11.835967,12.34717 -11.835967,19.58859l0.000004,0z" stroke-width="0" fill="#ffffff"/>
  <path id="svg_7" d="m54.470009,44.074673c21.263104,0 38.499992,12.53464 38.499992,27.999015c0,5.283601 -2.037779,10.221386 -5.543957,14.436879l5.543957,11.788015l-15.435678,-3.841172c-6.432221,3.509513 -14.40183,5.617261 -23.064314,5.617261c-21.263156,0 -38.500008,-12.536687 -38.500008,-28.000983s17.236853,-27.999015 38.500008,-27.999015zm-2.700771,43.831563l5.415176,0l0,-5.037409l-5.415176,0l0,5.037409zm0,-10.416692l0,1.666262l5.415176,0l0,-2.05079c0,-6.188983 -7.263098,-7.169599 -7.263098,-11.56416c0,-2.00607 1.847924,-3.544153 4.270676,-3.544153c2.508274,0 4.710746,1.792441 4.710746,1.792441l3.080531,-3.715049c0,0 -3.036464,-3.074138 -8.274894,-3.074138c-4.977707,0 -9.597701,2.988688 -9.597701,8.024121c-0.002639,7.047573 7.658567,7.857289 7.658567,12.465466l-0.000003,0z" stroke-width="0" fill="#ffffff"/>
  <rect id="svg_8" height="40" width="29" y="50.78125" x="39.5" stroke-width="0" fill="#ffffff"/>
  <rect id="svg_9" height="61" width="48.000002" y="8.78125" x="218.499998" stroke-width="0" fill="#ffffff"/>
  <path stroke-opacity="0" stroke="#000000" id="svg_10" d="m55.92142,62.506982l-9.667572,7.386987l9.548058,2.53778l-8.825187,7.930566l-3.563084,-1.339196l2.527171,7.644194l10.043221,-3.335115l-4.240409,-1.394062l11.514574,-11.390857l-10.525621,-2.064515l10.16419,-7.697357l-5.797847,-1.155718l6.314724,-4.892073l-2.319762,-0.070306l-9.799201,6.711398l4.626745,1.128276l0.000001,-0.000002z" stroke-width="0" fill="#0b1a21"/>
  <path stroke="#000000" stroke-opacity="0" id="svg_6" d="m264.358432,40.156863l-6.351085,-5.817114l0,-13.893062l-5.444676,0l0,8.90615l-12.704245,-11.636128l-24.500006,22.440155l5.832545,-0.127285l0,22.687126l37.075653,0l0,-22.559841l6.091815,0zm-24.500006,19.315023l-12.098589,0l0,-13.298432l12.098589,0l0,13.298432zm11.754278,-5.699328l-7.950264,0l0,-7.678895l7.950264,0l0,7.678895z" stroke-width="0" fill="#0b1a21"/>
 </g>
</svg>