<svg width="300" height="300" xmlns="http://www.w3.org/2000/svg">
 <!-- Created with UXWing SVG Editor - https://uxwing.com/svg-icon-editor/ -->

 <g>
  <title>background</title>
  <rect fill="none" id="canvas_background" height="302" width="302" y="-1" x="-1"/>
 </g>
 <g>
  <title>Layer 1</title>
  <path stroke="null" id="svg_12" d="m253.802682,0l-210.118236,0c-10.544116,0 -19.101658,10.338462 -19.101658,23.076924l0,253.846163c0,12.738462 8.557542,23.076924 19.101658,23.076924l210.118236,0c10.544116,0 19.101658,-10.338462 19.101658,-23.076924l0,-253.846163c0,-12.738462 -8.557542,-23.076924 -19.101658,-23.076924zm-153.109339,272.953856l-38.203315,0l0,-161.538467l38.203315,0l0,161.538467zm-19.101658,-178.84616c-13.208796,0 -23.877072,-12.911539 -23.877072,-28.846155s10.668276,-28.846155 23.877072,-28.846155s23.877074,12.911539 23.877074,28.846155s-10.668277,28.846155 -23.877074,28.846155zm152.813264,178.84616l-38.203316,0l0,-98.076927c0,-4.615384 -3.848984,-12.173077 -6.56142,-13.996154c-3.58156,-2.434615 -12.043595,-2.642308 -15.90213,-0.392308l-15.739766,9.150001l0,103.315388l-38.203315,0l0,-161.538467l38.203315,0l0,7.084615c15.118962,-8.342308 36.102133,-7.523077 50.332868,2.123077c15.109412,10.223078 26.073764,33.046155 26.073764,54.253848l0,98.076927z" stroke-width="0" fill="#ffffff"/>
  <rect stroke="null" id="svg_13" height="266.999988" width="230.158966" y="15.781262" x="31.096006" stroke-width="0" fill="#ffffff"/>
  <path stroke="null" id="svg_14" d="m139.111047,27.91516l-69.014781,0c-3.463287,0 -6.274071,1.998769 -6.274071,4.461538l0,49.076922c0,2.462769 2.810784,4.461538 6.274071,4.461538l69.014781,0c3.463287,0 6.274071,-1.998769 6.274071,-4.461538l0,-49.076922c0,-2.462769 -2.810784,-4.461538 -6.274071,-4.461538zm-50.289816,52.771075l-12.548142,0l0,-31.230768l12.548142,0l0,31.230768zm-6.274071,-34.576922c-4.33852,0 -7.842589,-2.496231 -7.842589,-5.576923s3.504069,-5.576923 7.842589,-5.576923s7.842589,2.496231 7.842589,5.576923s-3.504069,5.576923 -7.842589,5.576923zm50.192568,34.576922l-12.548142,0l0,-18.961538c0,-0.892308 -1.264225,-2.353461 -2.155143,-2.705923c-1.176388,-0.470692 -3.955802,-0.510846 -5.223164,-0.075846l-5.169834,1.769l0,19.974307l-12.548142,0l0,-31.230768l12.548142,0l0,1.369692c4.965927,-1.612846 11.857994,-1.454461 16.532177,0.410462c4.96279,1.976461 8.564107,6.388923 8.564107,10.489077l0,18.961538z" stroke-width="0" fill="#0b1a21"/>
  <path id="svg_16" d="m203.462041,27.91516l-98.153861,0c-4.92554,0 -8.923079,1.998769 -8.923079,4.461538l0,49.076922c0,2.462769 3.997539,4.461538 8.923079,4.461538l98.153861,0c4.925539,0 8.923078,-1.998769 8.923078,-4.461538l0,-49.076922c0,-2.462769 -3.997539,-4.461538 -8.923078,-4.461538zm-71.522934,52.771075l-17.846157,0l0,-31.230768l17.846157,0l0,31.230768zm-8.923079,-34.576922c-6.170308,0 -11.153847,-2.496231 -11.153847,-5.576923s4.983539,-5.576923 11.153847,-5.576923s11.153848,2.496231 11.153848,5.576923s-4.983539,5.576923 -11.153848,5.576923zm71.384627,34.576922l-17.846157,0l0,-18.961538c0,-0.892307 -1.798,-2.353461 -3.065077,-2.705923c-1.673078,-0.470692 -5.626001,-0.510846 -7.428463,-0.075846l-7.352616,1.769l0,19.974307l-17.846157,0l0,-31.230768l17.846157,0l0,1.369692c7.062616,-1.612846 16.864617,-1.454461 23.512311,0.410462c7.058155,1.976461 12.180002,6.388923 12.180002,10.489076l0,18.961538z" stroke-width="0" fill="#0b1a21"/>
  <path stroke="null" id="svg_17" d="m229.896575,27.91516l-70.135518,0c-3.519528,0 -6.375957,1.998769 -6.375957,4.461538l0,49.076922c0,2.462769 2.856428,4.461538 6.375957,4.461538l70.135518,0c3.519528,0 6.375956,-1.998769 6.375956,-4.461538l0,-49.076922c0,-2.462769 -2.856428,-4.461538 -6.375956,-4.461538zm-51.106477,52.771075l-12.751913,0l0,-31.230768l12.751913,0l0,31.230768zm-6.375957,-34.576922c-4.408973,0 -7.969945,-2.496231 -7.969945,-5.576923s3.560971,-5.576923 7.969945,-5.576923s7.969945,2.496231 7.969945,5.576923s-3.560971,5.576923 -7.969945,5.576923zm51.00765,34.576922l-12.751913,0l0,-18.961538c0,-0.892307 -1.284755,-2.353461 -2.190141,-2.705923c-1.195492,-0.470692 -4.02004,-0.510846 -5.307984,-0.075846l-5.253788,1.769l0,19.974307l-12.751913,0l0,-31.230768l12.751913,0l0,1.369692c5.046569,-1.612846 12.050556,-1.454461 16.800644,0.410462c5.043381,1.976461 8.70318,6.388923 8.70318,10.489076l0,18.961538z" stroke-width="0" fill="#0b1a21"/>
  <rect stroke="null" id="svg_18" height="54" width="158.748337" y="28.741515" x="69.301337" stroke-width="0" fill="#0b1a21"/>
  <ellipse ry="25" rx="25" id="svg_19" cy="131.092509" cx="89" stroke-width="0" fill="#0b1a21"/>
  <ellipse ry="25" rx="25" id="svg_24" cy="131.430257" cx="149.662251" stroke-width="0" fill="#0b1a21"/>
  <ellipse ry="25" rx="25" id="svg_30" cy="130.768005" cx="211" stroke-width="0" fill="#0b1a21"/>
  <ellipse ry="25" rx="25" id="svg_22" cy="191.794495" cx="89.258279" stroke-width="0" fill="#0b1a21"/>
  <ellipse ry="25" rx="25" id="svg_25" cy="191.794495" cx="149.662251" stroke-width="0" fill="#0b1a21"/>
  <ellipse ry="25" rx="25" id="svg_31" cy="191.794495" cx="211" stroke-width="0" fill="#0b1a21"/>
  <ellipse ry="25" rx="25" id="svg_23" cy="251.496481" cx="89.258279" stroke-width="0" fill="#0b1a21"/>
  <ellipse ry="25" rx="25" id="svg_26" cy="251.496481" cx="149.662251" stroke-width="0" fill="#0b1a21"/>
  <ellipse ry="25" rx="25" id="svg_32" cy="251.496481" cx="211" stroke-width="0" fill="#0b1a21"/>
 </g>
</svg>