<svg width="300" height="300" xmlns="http://www.w3.org/2000/svg">

 <g>
  <title>background</title>
  <rect fill="none" id="canvas_background" height="302" width="302" y="-1" x="-1"/>
 </g>
 <g>
  <title>Layer 1</title>
  <path fill="#ffffff" stroke="null" id="svg_1" d="m273.447753,263.805466l0,-263.773795l-8.238175,0.843798c-33.039696,3.336543 -65.446701,12.98547 -96.037353,28.598951l-14.501825,7.355856l0,262.73032l10.560682,-5.362303c31.655683,-16.090131 65.172534,-26.045013 99.340531,-29.510382l8.87614,-0.882445zm0,0"/>
  <path fill="#ffffff" stroke="null" id="svg_2" d="m300.430338,41.953612l-15.153369,0l0,226.473727c0.009865,3.374357 -2.010091,6.192641 -4.636773,6.470678l-12.936104,1.358589c-3.734083,0.394939 -7.458299,0.884663 -11.167718,1.469173c-1.203588,0.186411 -2.399777,0.432853 -3.595966,0.647699c-2.500898,0.426534 -4.996863,0.859387 -7.485429,1.364909c-1.450225,0.296994 -2.890585,0.64454 -4.335877,0.96997c-2.227131,0.499202 -4.459195,0.995246 -6.681393,1.557639c-1.516817,0.38862 -3.031167,0.824632 -4.57758,1.244847c-2.116145,0.575031 -4.232289,1.1627 -6.333635,1.804081c-1.57601,0.480246 -3.147086,0.988927 -4.713231,1.500768c-2.04462,0.647699 -4.079374,1.345951 -6.111661,2.072639c-1.580943,0.556074 -3.161885,1.143742 -4.737895,1.737731c-2.019956,0.764601 -4.010315,1.541841 -6.005608,2.356995c-1.561211,0.647699 -3.124889,1.295399 -4.681167,1.93994c-1.997758,0.862546 -3.985652,1.753528 -5.966146,2.672946c-1.51435,0.704571 -3.031167,1.412301 -4.580047,2.154787c-0.693049,0.338067 -1.381166,0.698252 -2.07175,1.042638l115.771347,0l0,-258.839755zm0,0"/>
  <path fill="#ffffff" id="svg_3" d="m33.704686,0.997815l-8.341035,-0.844616l0,264.048733l9.702293,0.99613c34.573259,3.491293 68.479235,13.517072 100.476782,29.709834l10.081309,5.06447l0,-262.984905l-14.666877,-7.356536c-30.97527,-15.631834 -63.79224,-25.293334 -97.252471,-28.63311zm0,0"/>
  <path fill="#ffffff" stroke="null" id="svg_4" d="m-0.39394,41.939424l0,258.710288l109.900182,0c-0.589591,-0.312651 -1.179181,-0.647407 -1.773451,-0.944267c-1.371033,-0.704253 -2.753763,-1.376925 -4.134154,-2.055912c-1.946585,-0.953742 -3.890831,-1.882219 -5.851454,-2.769641c-1.417826,-0.647407 -2.84033,-1.275866 -4.265174,-1.888534c-1.944246,-0.862158 -3.89551,-1.673785 -5.849115,-2.431726c-1.438882,-0.568455 -2.875425,-1.140068 -4.311967,-1.683259c-1.969981,-0.735834 -3.944643,-1.43377 -5.923983,-2.119075c-1.436542,-0.498977 -2.875425,-0.997955 -4.344722,-1.462193c-2.007416,-0.647408 -4.02653,-1.241128 -6.043305,-1.825373c-1.436542,-0.420025 -2.875425,-0.846367 -4.311967,-1.234811c-2.089304,-0.555823 -4.187966,-1.0548 -6.286628,-1.55062c-1.375712,-0.325282 -2.751423,-0.647407 -4.129475,-0.979006c-2.316249,-0.495819 -4.639517,-0.915845 -6.962786,-1.339028c-1.174502,-0.211592 -2.339646,-0.464239 -3.511808,-0.644249c-3.514148,-0.574772 -7.028296,-1.064274 -10.542444,-1.468509l-12.898468,-1.474826c-2.487043,-0.287386 -4.393855,-3.101239 -4.384496,-6.467757l0,-226.371502l-14.374784,0zm0,0"/>
  <path transform="rotate(13 235.4006805419924,227.21427917480463) " stroke="null" id="svg_5" d="m219.643131,242.334339l8.452892,-11.052529c-1.138756,-2.455256 -1.806589,-5.327735 -1.807775,-8.408049c0.001186,-8.985027 5.565671,-16.262386 12.433794,-16.265488c6.86931,0.003102 12.436167,7.280462 12.436167,16.263937c0,8.978822 -5.566857,16.256182 -12.436167,16.256182c-2.356988,0 -4.553839,-0.873221 -6.4316,-2.362195l-8.455265,11.05408l-4.192046,-5.485938zm26.771446,-19.462129c-0.007117,-5.555734 -3.443551,-10.047471 -7.691349,-10.05988c-4.245425,0.012408 -7.684232,4.504146 -7.691349,10.05988c0.008303,5.552632 3.445924,10.044369 7.691349,10.056777c4.247798,-0.012408 7.684232,-4.504146 7.691349,-10.056777z" stroke-opacity="null" stroke-width="null" fill="#0b1a20"/>
 </g>
</svg>